<?xml version="1.0" standalone="no"?>
<!DOCTYPE svg PUBLIC "-//W3C//DTD SVG 20010904//EN"
 "http://www.w3.org/TR/2001/REC-SVG-20010904/DTD/svg10.dtd">
<svg version="1.0" xmlns="http://www.w3.org/2000/svg"
 width="700.000000pt" height="700.000000pt" viewBox="0 0 700.000000 700.000000"
 preserveAspectRatio="xMidYMid meet">

<g transform="translate(0.000000,700.000000) scale(0.100000,-0.100000)"
fill="#000000" stroke="none">
<path d="M4438 5915 c-42 -7 -93 -19 -115 -25 -85 -29 -280 -212 -349 -329
-19 -33 -34 -40 -34 -17 0 7 -11 24 -24 38 -19 19 -61 33 -188 63 -155 38
-170 40 -323 40 l-160 0 -150 -64 c-506 -213 -648 -284 -903 -452 -364 -241
-741 -593 -967 -904 -112 -153 -232 -370 -270 -484 -10 -30 -28 -70 -41 -89
-13 -19 -24 -46 -24 -60 0 -77 125 -219 246 -279 68 -33 84 -36 125 -19 14 6
15 -13 11 -191 -3 -156 -1 -214 12 -273 29 -138 88 -220 158 -220 15 0 64 12
108 26 45 14 83 24 85 22 1 -2 5 -28 7 -59 l4 -55 -145 -12 c-400 -31 -786
-174 -1048 -385 -191 -155 -285 -272 -394 -492 l-59 -119 0 -560 0 -561 26
-67 c32 -85 100 -217 162 -313 l47 -75 118 0 c115 0 117 0 116 23 0 21 -1 21
-8 2 -8 -19 -9 -19 -16 5 -5 14 -8 31 -6 39 2 9 -3 12 -13 8 -14 -6 -56 27
-56 43 0 4 -9 17 -20 30 -11 12 -17 27 -14 32 4 5 -3 16 -15 24 -12 9 -28 30
-37 47 -9 18 -13 29 -9 25 11 -11 45 10 45 27 0 8 -9 15 -20 15 -11 0 -20 -7
-20 -15 0 -29 -16 -14 -43 40 -15 30 -23 55 -18 55 5 0 12 -8 14 -17 3 -10 4
-6 4 9 -1 16 -6 27 -12 25 -6 -1 -12 3 -14 8 -1 6 -10 19 -19 29 -13 14 -14
20 -4 23 6 3 12 9 12 14 0 4 -6 6 -13 4 -24 -10 -71 136 -71 222 1 56 9 76 23
54 6 -9 11 -10 15 -2 8 13 113 6 216 -15 41 -9 93 -18 115 -20 22 -3 63 -11
90 -18 l50 -13 -37 -7 c-21 -4 -40 -11 -43 -16 -3 -6 1 -7 9 -4 10 4 16 1 16
-7 0 -8 5 -6 13 5 10 14 21 17 45 11 33 -7 42 -20 20 -27 -9 -3 -8 -9 4 -21
13 -14 22 -15 48 -6 33 12 64 -1 39 -16 -8 -6 -10 -4 -4 5 6 10 4 12 -9 7 -10
-4 -20 -7 -22 -7 -3 0 -2 -4 1 -10 8 -12 155 -13 155 -1 0 5 -26 20 -57 35
-32 15 -49 24 -38 21 11 -4 40 -11 65 -18 48 -12 107 -44 62 -34 -12 3 -20 2
-17 -3 2 -4 21 -7 42 -8 21 0 52 -7 68 -16 23 -12 25 -16 11 -16 -11 0 -16 -3
-12 -7 4 -5 24 -8 43 -8 41 0 56 -21 21 -28 -17 -3 -14 -5 10 -6 18 0 31 3 28
8 -16 25 145 -57 219 -112 20 -15 19 -16 -8 -22 -29 -8 -37 -25 -12 -25 8 0
15 -4 15 -8 0 -5 7 -9 15 -9 8 0 15 4 15 9 0 4 -7 8 -15 8 -20 0 -19 16 1 24
16 6 84 -29 84 -43 0 -4 12 -14 27 -23 16 -10 43 -31 60 -48 18 -17 33 -29 33
-25 0 6 51 -38 81 -69 19 -20 26 -42 11 -32 -4 2 -8 -4 -8 -14 0 -10 4 -16 8
-14 4 3 3 -7 -2 -21 -6 -15 -10 -44 -10 -65 l0 -40 650 0 650 0 0 87 c0 47 5
114 11 147 20 115 -33 292 -111 367 -101 99 -331 212 -493 243 -41 8 -139 18
-218 21 -174 9 -189 15 -189 81 0 55 19 95 56 114 42 23 465 19 571 -5 204
-45 325 -103 442 -212 79 -72 118 -146 157 -299 24 -93 25 -110 20 -279 -3
-99 -8 -199 -12 -222 l-6 -43 478 0 479 0 -3 82 c-2 46 1 108 5 138 7 46 13
58 41 76 18 12 50 25 72 29 51 9 63 24 52 66 -9 38 14 31 -262 84 -102 19
-257 51 -345 70 -88 19 -203 44 -255 55 -52 11 -110 24 -128 28 -27 6 -37 15
-47 42 -7 19 -16 43 -20 53 -5 11 -3 17 6 17 7 0 105 -21 218 -46 597 -133
786 -168 876 -161 91 7 301 49 772 153 210 46 389 84 397 84 12 0 9 -11 -15
-50 -17 -27 -34 -52 -39 -55 -10 -6 -590 -135 -790 -175 -279 -55 -265 -50
-268 -96 l-3 -40 75 -22 c59 -17 80 -29 100 -55 42 -54 74 -138 81 -209 l7
-68 409 0 409 0 -6 52 c-10 92 21 382 50 475 34 104 106 214 189 285 34 29 73
63 87 76 42 39 169 97 305 140 149 47 302 83 320 75 20 -7 24 -25 31 -128 6
-76 4 -95 -7 -99 -8 -2 -72 -21 -144 -41 -71 -20 -141 -43 -154 -52 -14 -9
-64 -35 -111 -59 -114 -57 -214 -149 -258 -236 -26 -52 -35 -88 -51 -213 -11
-82 -22 -178 -25 -212 l-6 -63 584 0 584 0 -70 158 c-38 86 -75 173 -83 192
-31 84 -101 222 -156 311 -32 53 -59 99 -59 103 0 3 7 6 15 6 8 0 22 11 31 25
14 22 16 46 12 163 -3 75 -11 159 -18 185 -13 48 -13 48 22 85 52 55 94 147
105 229 5 39 6 81 1 93 -9 25 -82 59 -243 115 -60 21 -112 40 -114 42 -3 2 15
22 39 46 55 54 150 181 195 262 52 93 111 258 129 360 26 149 17 350 -25 545
-13 60 -10 64 51 74 81 13 205 190 269 383 19 57 20 72 11 185 -23 283 -99
566 -221 826 -140 299 -289 470 -759 873 -164 140 -166 141 -310 231 -220 137
-389 228 -610 326 -224 100 -403 129 -592 97z m302 -204 c208 -61 520 -210
715 -341 39 -26 102 -68 140 -92 76 -49 115 -80 294 -232 64 -55 115 -105 115
-112 -1 -7 4 -10 10 -8 12 4 116 -91 116 -106 0 -6 5 -10 12 -10 16 0 118
-101 118 -116 0 -7 6 -14 14 -17 35 -14 169 -203 222 -315 80 -167 105 -230
144 -362 17 -58 36 -118 41 -135 37 -116 66 -378 48 -434 -29 -87 -78 -178
-112 -208 -21 -18 -38 -36 -39 -40 -7 -24 -107 30 -163 87 -41 42 -52 62 -90
176 -73 217 -111 309 -255 599 -144 291 -224 424 -341 561 -84 99 -124 122
-181 105 -31 -10 -43 -20 -55 -48 -20 -49 -12 -71 55 -150 55 -64 152 -198
152 -209 0 -3 13 -24 29 -47 32 -47 282 -539 276 -545 -2 -2 -25 3 -52 12 -46
15 -347 93 -388 101 -11 2 -32 4 -46 4 -26 1 -27 4 -43 109 -40 262 -142 520
-271 687 -64 83 -184 207 -256 265 -24 19 -62 51 -84 71 -76 70 -180 151 -220
171 -22 12 -51 29 -64 39 -33 26 -95 25 -134 -3 -18 -13 -62 -47 -98 -78 -36
-30 -92 -77 -125 -105 -99 -83 -163 -155 -170 -191 -6 -31 -20 -43 -61 -50
-34 -6 56 187 129 278 40 51 41 102 2 142 -39 38 -92 36 -139 -6 -44 -38 -117
-138 -140 -193 -73 -169 -112 -310 -144 -510 -42 -269 -65 -598 -58 -852 l4
-182 -66 34 c-36 18 -106 59 -156 89 -59 36 -101 56 -121 56 -97 0 -126 -138
-41 -190 l29 -18 -63 -47 c-35 -26 -76 -53 -91 -61 -41 -21 -181 -74 -185 -70
-2 2 8 35 22 73 32 91 33 136 0 168 -35 36 -105 35 -139 -2 -63 -68 -98 -243
-94 -468 l3 -160 -60 -21 c-117 -42 -290 -63 -398 -48 -50 7 -53 11 -80 114
-35 131 -48 328 -37 563 15 310 47 491 116 662 50 126 55 171 22 203 -34 31
-71 36 -112 17 -30 -15 -43 -32 -75 -99 -109 -231 -153 -492 -155 -918 l-1
-268 -68 -30 c-38 -17 -94 -37 -124 -45 -68 -18 -110 -31 -190 -62 -94 -35
-100 -33 -109 35 -7 56 1 468 11 547 3 22 10 81 15 130 7 63 16 97 30 115 48
60 47 114 -2 155 -36 30 -66 31 -117 6 -59 -30 -90 -105 -109 -255 -9 -67 -16
-122 -18 -124 -1 -2 -21 6 -43 18 -55 28 -121 88 -121 110 0 27 66 185 105
252 19 32 35 61 35 63 0 13 83 130 90 128 5 -2 7 3 4 11 -3 7 1 20 8 27 7 8
45 55 83 104 92 120 136 166 148 158 6 -3 7 -1 3 6 -14 22 375 388 397 374 6
-3 7 -2 4 4 -6 10 26 43 43 43 6 0 10 4 10 8 0 4 12 15 28 25 15 9 41 29 58
44 34 30 48 40 111 81 22 15 65 43 94 63 77 51 158 99 168 99 5 0 11 3 13 8 2
4 32 22 68 41 36 19 93 49 127 67 71 37 316 145 443 195 47 18 95 39 107 47
18 11 53 13 165 9 118 -4 164 -10 262 -36 139 -36 184 -39 219 -11 30 24 37
25 37 6 0 -25 50 -56 89 -56 41 0 68 20 120 90 75 98 183 195 248 222 82 33
237 37 333 9z m-177 -771 c23 -16 57 -42 75 -57 l33 -28 -63 -1 c-35 0 -101
-4 -148 -8 l-85 -7 50 43 c27 24 58 53 70 64 11 12 21 22 23 23 2 1 22 -12 45
-29z m359 -311 c48 -26 196 -241 250 -364 46 -104 46 -111 0 -134 -59 -30
-190 -144 -247 -217 -28 -34 -69 -97 -91 -139 l-41 -77 -41 74 c-22 40 -61
101 -86 135 -156 208 -454 353 -714 348 l-74 -1 6 45 c27 197 26 192 70 211
79 35 382 110 496 124 127 15 440 12 472 -5z m-754 -578 c196 -68 342 -202
432 -395 39 -83 70 -204 70 -274 0 -64 -19 -143 -49 -209 -112 -238 -324 -362
-596 -350 -160 7 -264 51 -410 174 -63 53 -185 210 -185 238 0 6 7 20 15 32
l15 22 72 -34 c91 -44 164 -59 245 -50 46 5 69 13 83 28 24 25 24 27 6 114
-22 103 -29 286 -21 506 6 153 11 201 22 212 11 11 40 15 116 15 86 0 115 -5
185 -29z m1112 -181 c7 -47 12 -102 11 -124 -3 -74 51 -116 149 -116 44 0 108
-11 158 -26 8 -2 -2 -19 -27 -44 -61 -63 -78 -167 -40 -250 42 -92 107 -134
209 -134 110 0 189 58 223 167 15 46 15 59 2 112 -7 33 -12 61 -11 62 1 1 19
-2 40 -8 20 -6 50 -7 66 -4 22 5 29 2 32 -12 18 -85 -102 -332 -217 -449 -120
-122 -247 -188 -380 -199 -227 -19 -431 99 -533 306 -68 141 -77 246 -31 410
47 169 169 333 304 407 26 14 30 7 45 -98z m1092 -859 c9 -20 17 -39 17 -42 1
-4 -29 -4 -66 -2 -76 5 -154 -20 -242 -76 -86 -56 -175 -184 -218 -316 -22
-68 -26 -99 -27 -205 -1 -148 14 -215 76 -340 30 -60 61 -103 105 -146 57 -57
61 -63 45 -77 -35 -30 -129 -75 -195 -92 -103 -27 -134 -85 -87 -163 l20 -32
-138 0 c-121 0 -156 4 -288 34 -178 41 -356 76 -594 117 -96 17 -227 39 -290
50 -363 63 -522 79 -856 86 -368 8 -685 -21 -1044 -94 -69 -14 -137 -27 -152
-30 -20 -4 -46 8 -110 49 -106 69 -179 136 -259 239 -114 144 -169 267 -209
469 -26 130 -29 178 -10 192 12 8 12 9 -2 4 -20 -6 -22 4 -12 77 5 38 11 48
33 55 14 6 50 19 79 31 39 15 53 18 56 8 11 -41 29 -97 42 -128 14 -32 14 -40
0 -72 -8 -21 -12 -37 -8 -37 4 0 8 -42 8 -93 3 -182 73 -342 202 -457 307
-275 780 -185 961 183 49 99 65 188 59 311 -6 101 -38 208 -82 273 -14 21 -26
43 -26 49 0 16 -109 127 -147 149 l-33 19 88 32 c48 17 111 42 139 56 l53 26
27 -32 c16 -17 39 -47 52 -66 38 -55 194 -191 278 -242 141 -86 286 -128 445
-128 49 0 59 -9 34 -29 -8 -7 -26 -37 -41 -68 -67 -141 -59 -290 20 -418 57
-90 234 -215 376 -263 30 -11 74 -26 99 -35 96 -33 158 -41 290 -41 147 0 218
14 342 65 185 76 338 235 390 403 36 120 16 242 -61 357 -22 33 -36 59 -31 59
5 0 43 5 85 11 184 25 413 182 553 379 26 36 50 67 54 68 5 2 8 9 8 16 0 7 5
17 12 24 15 15 156 -115 180 -167z m-1521 -6 l54 -80 -110 0 -111 0 55 82 c31
45 56 81 57 80 1 -1 26 -38 55 -82z m61 -220 c117 -17 202 -45 288 -93 101
-56 190 -149 190 -197 0 -23 -88 -94 -155 -125 -74 -35 -146 -58 -280 -92 -77
-19 -116 -22 -265 -22 -120 1 -197 6 -246 17 -76 16 -218 82 -246 114 -17 18
-17 23 -2 73 22 75 63 130 136 185 178 133 349 175 580 140z m-3470 -430 c13
-15 35 -40 51 -56 15 -16 27 -35 27 -42 0 -7 17 -31 38 -53 43 -45 69 -102 49
-109 -47 -14 -253 -27 -345 -21 -102 7 -207 22 -169 25 24 1 22 21 -2 21 -11
0 -23 -4 -26 -10 -3 -5 -19 -10 -35 -10 -16 0 -32 5 -35 10 -3 6 -21 10 -38
10 -28 0 -78 19 -52 20 6 0 3 5 -5 10 -8 5 -26 9 -40 9 -23 -1 -23 -2 5 -9
l30 -8 -27 -1 c-15 0 -30 4 -33 9 -4 6 -12 10 -18 9 -30 -4 -42 3 -22 11 17 7
17 9 3 9 -10 1 -18 6 -18 12 0 5 5 7 10 4 6 -3 10 -1 10 6 0 6 8 9 20 6 11 -3
18 -2 15 2 -3 7 35 31 55 36 3 0 15 6 28 13 12 7 27 10 33 7 5 -4 21 0 34 9
29 19 171 66 201 66 11 0 25 5 30 10 6 6 29 11 52 13 23 1 42 5 42 8 0 3 25 7
55 8 48 2 57 -1 77 -24z m3932 -142 c-44 -77 -85 -122 -149 -168 -150 -107
-328 -139 -537 -95 -52 11 -114 27 -139 35 -71 25 -181 83 -219 116 -32 28
-33 30 -10 24 169 -43 434 -57 575 -31 187 35 391 100 460 146 46 30 50 25 19
-27z m-4779 -177 c16 -6 17 -9 5 -17 -10 -6 -4 -7 20 -4 29 4 31 3 15 -5 -17
-9 -16 -10 10 -7 36 5 81 -6 78 -19 -1 -5 11 -10 25 -10 49 -3 97 -16 114 -31
10 -9 25 -13 34 -9 9 3 35 1 58 -6 l41 -12 -35 -7 c-34 -6 -33 -6 15 -9 l50
-3 -45 -7 -45 -7 46 -1 c34 -2 49 2 53 13 3 8 13 15 23 14 16 0 16 -1 -2 -9
-16 -7 -17 -9 -3 -9 9 -1 24 -4 34 -8 13 -5 15 -3 9 7 -7 11 6 12 71 6 111
-10 288 -13 267 -4 -10 3 13 7 50 7 38 1 66 -3 63 -8 -7 -10 105 -7 144 4 16
4 21 4 12 -3 -10 -7 -10 -11 2 -22 16 -13 13 -53 -6 -76 -5 -8 -3 -18 7 -28
20 -19 24 -56 33 -264 6 -142 5 -162 -8 -158 -8 2 -59 17 -112 32 -77 21 -95
30 -90 42 4 12 1 14 -13 8 -22 -8 -156 24 -149 36 3 4 -3 9 -13 9 -34 3 -58 7
-88 18 -16 5 -84 26 -150 45 -66 19 -138 42 -160 50 l-40 14 30 8 30 8 -44 13
c-25 7 -47 11 -49 8 -3 -3 1 -5 9 -6 8 0 6 -4 -6 -9 -14 -7 -9 -8 20 -5 36 5
37 4 15 -6 -17 -7 -34 -8 -55 -1 -16 6 -45 14 -64 17 -31 7 -33 9 -18 20 17
12 23 34 10 36 -5 0 -18 2 -30 5 -17 3 -21 0 -17 -14 5 -15 4 -15 -5 -1 -8 12
-24 16 -68 14 -66 -2 -156 13 -148 25 3 4 -10 8 -28 8 -17 -1 -45 5 -62 12
-28 13 -29 14 -7 17 12 3 22 8 22 13 0 5 -15 4 -32 -2 -39 -12 -99 -11 -112 2
-11 11 8 40 63 99 22 24 41 46 41 50 0 13 51 60 63 57 6 -1 8 -1 4 2 -10 5 12
32 26 32 6 0 20 -8 31 -17 21 -18 21 -18 2 4 -16 20 -17 24 -3 37 8 8 17 12
21 9 3 -4 6 -1 6 6 0 7 3 10 8 8 4 -2 16 -7 27 -11z m1105 -123 c0 -1 -18 -7
-40 -13 -44 -12 -111 -3 -75 10 17 7 115 9 115 3z m-981 -249 c11 -10 -10 -16
-22 -6 -8 7 -16 9 -19 6 -3 -3 -9 0 -13 7 -6 9 -1 10 21 5 16 -4 31 -10 33
-12z m-475 -80 c9 -3 14 -9 12 -13 -2 -3 12 -5 32 -5 21 1 52 -5 71 -12 18 -8
37 -12 41 -9 5 3 6 -4 3 -15 -4 -16 -8 -18 -19 -9 -8 7 -17 9 -21 5 -3 -3 -2
-6 4 -6 6 0 9 -9 6 -20 -4 -14 0 -20 11 -20 9 0 16 -5 16 -11 0 -6 9 -9 19 -6
15 4 18 1 14 -12 -6 -14 -4 -14 14 2 24 21 33 22 33 2 0 -8 5 -15 10 -15 6 0
10 9 10 20 0 15 7 20 29 20 17 0 33 5 36 10 3 6 14 10 23 9 12 0 13 -2 3 -6
-11 -5 -11 -7 0 -14 12 -8 12 -11 -1 -18 -20 -14 -7 -23 34 -24 20 -1 36 -5
36 -10 0 -6 5 -6 13 0 28 21 178 -1 330 -48 66 -21 101 -44 55 -36 -12 2 -17
2 -9 0 12 -4 12 -6 0 -15 -10 -6 -6 -7 11 -2 27 9 64 9 95 1 11 -3 26 -6 34
-6 7 -1 11 -7 7 -16 -6 -16 9 -21 19 -6 3 6 31 1 66 -11 45 -15 57 -23 48 -30
-9 -6 -1 -7 24 -3 20 3 37 2 37 -3 0 -5 8 -9 18 -9 59 1 72 -4 72 -23 0 -13 7
-20 18 -20 10 0 27 -7 38 -15 24 -18 29 -18 46 -1 12 11 21 10 57 -7 29 -14
38 -22 30 -28 -7 -4 -17 -5 -21 -3 -4 3 -8 -2 -8 -10 0 -12 10 -16 35 -16 44
0 58 -23 47 -82 -5 -23 -9 -88 -11 -142 -1 -55 -7 -109 -11 -122 -5 -12 -9
-83 -9 -157 -1 -140 -4 -160 -30 -190 -8 -10 -11 -17 -6 -15 6 2 11 -1 13 -7
1 -5 -6 -10 -15 -10 -13 0 -17 7 -15 25 2 18 0 21 -6 11 -7 -9 -15 -10 -28 -3
-23 12 -60 52 -49 52 4 0 0 9 -10 20 -10 11 -23 20 -28 20 -6 0 -2 -9 8 -20
10 -11 -17 3 -61 31 -43 29 -81 56 -84 59 -3 4 -15 10 -27 14 -13 4 -23 12
-23 17 0 12 17 12 23 -1 3 -6 4 -5 3 2 -2 7 -14 13 -27 12 -13 -1 -29 6 -36
15 -6 9 -17 16 -25 16 -39 2 -68 18 -68 39 0 13 -3 17 -8 9 -6 -9 -20 -7 -55
11 -26 12 -44 26 -40 31 5 4 0 5 -9 2 -27 -9 -48 2 -40 21 5 15 4 15 -11 3
-10 -8 -24 -10 -34 -6 -17 7 -16 8 2 16 17 8 16 9 -5 5 -14 -3 -43 2 -65 10
l-40 15 35 -5 c23 -4 30 -3 20 3 -23 14 -99 25 -80 12 21 -15 12 -14 -45 7
-29 11 -49 24 -47 32 2 9 -6 11 -29 6 -17 -3 -57 1 -91 9 -131 34 -258 54
-525 81 -75 8 -67 25 10 20 34 -2 51 -2 37 1 -14 3 -31 9 -37 15 -7 6 -24 7
-38 4 -25 -6 -25 -6 -25 58 0 56 3 66 20 71 12 4 20 15 20 28 0 22 -1 21 -20
-3 l-20 -25 10 35 c6 19 14 71 20 115 11 86 27 144 67 243 25 60 35 68 67 56z
m246 -61 c56 -15 80 -33 45 -33 -8 0 -15 5 -15 11 0 6 -9 9 -20 6 -11 -3 -23
-1 -26 4 -3 5 -9 7 -14 4 -11 -7 -40 5 -40 16 0 12 0 12 70 -8z m228 -64 c46
-16 49 -18 17 -13 -22 4 -51 6 -64 5 -14 0 -33 8 -43 19 -19 21 -19 21 6 14
14 -3 52 -15 84 -25z m832 -254 c19 -7 28 -14 19 -14 -9 -1 -32 6 -50 14 -43
18 -16 18 31 0z m174 -67 c-3 -4 -11 -5 -19 -1 -21 7 -19 12 4 10 11 0 18 -5
15 -9z m-1617 -380 c-3 -8 -6 -5 -6 6 -1 11 2 17 5 13 3 -3 4 -12 1 -19z m580
-83 c1 -14 0 -15 -3 -3 -3 9 -15 19 -27 22 -18 4 -18 4 3 3 17 -1 25 -8 27
-22z"/>
<path d="M5850 5040 c0 -5 5 -10 11 -10 5 0 7 5 4 10 -3 6 -8 10 -11 10 -2 0
-4 -4 -4 -10z"/>
<path d="M1875 4600 c3 -5 8 -10 11 -10 2 0 4 5 4 10 0 6 -5 10 -11 10 -5 0
-7 -4 -4 -10z"/>
<path d="M4281 3626 c-18 -6 -51 -27 -73 -45 -102 -86 -105 -245 -7 -338 161
-152 428 -3 380 212 -31 138 -171 218 -300 171z"/>
<path d="M1159 2316 c16 -19 55 -22 49 -3 -3 6 -17 14 -33 15 -25 3 -27 2 -16
-12z"/>
<path d="M1070 2290 c-24 -5 -28 -8 -12 -9 14 -1 22 -7 22 -19 0 -14 9 -19 39
-20 32 -2 39 1 44 20 4 12 5 23 3 25 -8 8 -65 10 -96 3z"/>
<path d="M919 2232 c8 -14 18 -17 43 -13 19 3 26 6 16 9 -10 2 -18 8 -18 13 0
5 -11 9 -25 9 -22 0 -24 -3 -16 -18z"/>
<path d="M1288 2103 c18 -2 45 -2 60 0 15 2 0 4 -33 4 -33 0 -45 -2 -27 -4z"/>
<path d="M1433 2093 c9 -2 25 -2 35 0 9 3 1 5 -18 5 -19 0 -27 -2 -17 -5z"/>
<path d="M850 1909 c0 -5 10 -9 22 -9 20 0 21 -1 3 -20 -18 -19 -17 -20 3 -20
26 0 34 13 25 37 -8 18 -53 28 -53 12z"/>
<path d="M1138 1883 c6 -2 18 -2 25 0 6 3 1 5 -13 5 -14 0 -19 -2 -12 -5z"/>
<path d="M348 1818 c-43 -46 -46 -53 -18 -55 12 -1 18 3 14 9 -4 6 3 5 16 -2
20 -11 21 -10 19 18 -2 16 2 36 9 45 7 8 9 17 5 20 -4 2 -25 -13 -45 -35z m22
-18 c0 -5 -4 -10 -10 -10 -5 0 -10 5 -10 10 0 6 5 10 10 10 6 0 10 -4 10 -10z"/>
<path d="M655 1710 c-30 -8 -30 -8 8 -9 20 0 37 4 37 9 0 11 -2 11 -45 0z"/>
<path d="M563 1703 c9 -2 25 -2 35 0 9 3 1 5 -18 5 -19 0 -27 -2 -17 -5z"/>
<path d="M1070 1560 c0 -6 7 -10 15 -10 8 0 15 2 15 4 0 2 -7 6 -15 10 -8 3
-15 1 -15 -4z"/>
<path d="M1135 1561 c-3 -6 4 -15 15 -21 11 -6 20 -8 20 -4 0 3 6 1 14 -5 11
-9 14 -8 12 6 0 10 -5 21 -11 25 -14 11 -43 10 -50 -1z"/>
<path d="M1240 1564 c0 -10 28 -34 39 -34 6 0 11 5 11 10 0 6 -7 10 -15 10 -8
0 -15 5 -15 10 0 6 -4 10 -10 10 -5 0 -10 -3 -10 -6z"/>
<path d="M1304 1526 c-13 -10 -25 -11 -35 -5 -8 5 -21 9 -29 8 -8 0 -3 -6 12
-15 25 -13 30 -13 51 1 13 8 27 12 30 8 4 -3 7 -1 7 5 0 16 -11 15 -36 -2z"/>
<path d="M1400 1474 c-17 -9 -20 -14 -9 -14 9 0 22 7 29 15 15 18 13 18 -20
-1z"/>
<path d="M1478 1433 c7 -3 16 -2 19 1 4 3 -2 6 -13 5 -11 0 -14 -3 -6 -6z"/>
<path d="M1640 1380 c34 -11 60 -11 35 0 -11 5 -29 8 -40 8 -16 0 -15 -2 5 -8z"/>
<path d="M1608 1903 c6 -2 18 -2 25 0 6 3 1 5 -13 5 -14 0 -19 -2 -12 -5z"/>
<path d="M210 1560 c13 -8 12 -10 -2 -10 -19 0 -24 -15 -9 -25 6 -3 15 3 20
13 11 20 6 32 -13 32 -6 0 -4 -5 4 -10z"/>
<path d="M266 1495 c-3 -8 -1 -15 4 -15 6 0 10 7 10 15 0 8 -2 15 -4 15 -2 0
-6 -7 -10 -15z"/>
<path d="M540 1456 c0 -9 5 -16 10 -16 6 0 10 4 10 9 0 6 -4 13 -10 16 -5 3
-10 -1 -10 -9z"/>
<path d="M828 1403 c7 -3 16 -2 19 1 4 3 -2 6 -13 5 -11 0 -14 -3 -6 -6z"/>
<path d="M1230 1280 c8 -5 22 -10 30 -10 13 0 13 1 0 10 -8 5 -22 10 -30 10
-13 0 -13 -1 0 -10z"/>
<path d="M1600 1176 c0 -2 7 -7 16 -10 8 -3 12 -2 9 4 -6 10 -25 14 -25 6z"/>
<path d="M383 953 c9 -2 25 -2 35 0 9 3 1 5 -18 5 -19 0 -27 -2 -17 -5z"/>
<path d="M620 910 c14 -4 36 -8 50 -8 22 0 22 1 -5 8 -16 4 -39 8 -50 8 -16 0
-15 -2 5 -8z"/>
<path d="M843 883 c9 -2 23 -2 30 0 6 3 -1 5 -18 5 -16 0 -22 -2 -12 -5z"/>
<path d="M1150 758 c0 -4 7 -8 15 -8 16 0 21 -15 8 -23 -5 -2 -2 -2 5 0 8 1
20 3 28 3 8 0 14 5 14 10 0 6 -9 10 -20 10 -11 0 -20 4 -20 8 0 5 -7 9 -15 9
-8 0 -15 -4 -15 -9z"/>
<path d="M398 723 c6 -2 18 -2 25 0 6 3 1 5 -13 5 -14 0 -19 -2 -12 -5z"/>
<path d="M530 704 c0 -15 6 -16 35 -5 17 7 17 8 -8 13 -19 4 -27 1 -27 -8z"/>
<path d="M136 655 c4 -22 10 -47 15 -55 10 -18 0 46 -12 75 -6 13 -6 5 -3 -20z"/>
<path d="M185 540 c3 -5 8 -10 11 -10 2 0 4 5 4 10 0 6 -5 10 -11 10 -5 0 -7
-4 -4 -10z"/>
<path d="M1115 480 c-3 -5 1 -10 9 -10 9 0 16 5 16 10 0 6 -4 10 -9 10 -6 0
-13 -4 -16 -10z"/>
<path d="M1140 461 c0 -5 -6 -11 -12 -14 -7 -2 -1 -2 15 0 15 3 27 1 27 -4 0
-5 13 -8 30 -5 16 2 27 8 24 14 -3 5 -14 6 -24 3 -10 -3 -21 -1 -25 5 -8 12
-35 13 -35 1z"/>
<path d="M1360 340 c6 -11 15 -20 19 -20 5 0 7 9 4 20 -3 11 -12 20 -20 20
-11 0 -11 -4 -3 -20z"/>
<path d="M325 230 c-3 -5 3 -10 14 -10 12 0 21 5 21 10 0 6 -6 10 -14 10 -8 0
-18 -4 -21 -10z"/>
</g>
</svg>
